<svg viewBox="0 0 620 120" xmlns="http://www.w3.org/2000/svg" fill-rule="evenodd" clip-rule="evenodd" stroke-linejoin="round" stroke-miterlimit="2"><path fill="none" d="M0 0H620V120H0z"/><path d="M223.621,2.658c0,0 389.51,0 389.51,0c3.791,0 6.869,3.078 6.869,6.869l-0,100.558c-0,3.792 -3.078,6.87 -6.869,6.87l-606.262,-0c-3.791,-0 -6.869,-3.078 -6.869,-6.87l0,-100.558c0,-3.791 3.078,-6.869 6.869,-6.869l169.657,0c-1.121,2.169 -1.734,4.72 -1.734,7.535c-0,2.764 0.614,5.28 1.735,7.426l-161.458,-0l-0,84.375l589.97,-0l0,-84.375l-381.419,-0c1.122,-2.146 1.735,-4.662 1.735,-7.426c0,-2.815 -0.613,-5.366 -1.734,-7.535Zm130.27,21.77c-21.797,-0 -37.649,14.861 -37.649,35.271c-0,20.707 15.456,35.866 36.757,35.866c10.701,0 22.491,-5.449 30.219,-13.871l-13.276,-14.168c-4.558,4.855 -10.8,7.926 -15.754,7.926c-8.322,0 -14.366,-6.737 -14.366,-16.05c0,-9.214 6.044,-15.852 14.366,-15.852c5.351,-0 11.592,3.665 15.754,9.313l13.276,-15.754c-7.134,-7.728 -18.726,-12.681 -29.327,-12.681Zm-143.464,0.693l22.986,0l0,40.027c0,18.429 -12.979,30.417 -33.092,30.417c-20.211,0 -33.587,-11.988 -33.587,-30.417l0,-40.027l22.986,0l0,40.027c0,6.837 4.954,11.295 10.7,11.295c5.648,0 10.007,-4.359 10.007,-11.295l0,-40.027Zm290.396,-0.693c-22.095,-0 -38.145,14.762 -38.145,35.37c-0,20.707 16.05,35.767 38.145,35.767c22.094,0 38.144,-15.159 38.144,-35.767c0,-20.509 -16.05,-35.37 -38.144,-35.37Zm-79.262,-0c-22.094,-0 -38.145,14.762 -38.145,35.37c0,20.707 16.051,35.767 38.145,35.767c22.094,0 38.145,-15.159 38.145,-35.767c-0,-20.509 -16.051,-35.37 -38.145,-35.37Zm-334.188,33.587l0,28.633c-7.728,5.152 -20.509,8.917 -30.416,8.917c-21.797,0 -37.65,-15.06 -37.65,-35.668c0,-20.509 16.447,-35.469 39.136,-35.469c10.799,-0 22.589,4.161 30.02,10.7l-12.979,15.753c-4.657,-4.458 -11.394,-7.331 -17.14,-7.331c-8.917,-0 -15.456,6.935 -15.456,16.347c-0,9.611 6.638,16.546 15.654,16.546c2.378,0 5.746,-0.892 9.115,-2.279l-0,-16.149l19.716,-0Zm481.02,17.437l28.931,0l-0,19.122l-51.917,0l0,-69.453l22.986,0l0,50.331Zm-449.513,19.122l-22.986,0l-0,-69.453l33.587,0c18.825,0 29.624,9.016 29.624,24.869c0,10.105 -3.864,17.635 -10.997,21.995l13.672,22.589l-25.958,0l-8.322,-18.032l-8.62,0l-0,18.032Zm144.355,0l-20.905,0l0,-69.453l19.221,0l27.445,35.668l-0,-35.668l20.806,0l-0,69.453l-19.221,0l-27.346,-35.469l0,35.469Zm237.885,-51.024c7.926,-0 14.267,6.836 14.267,16.347c0,9.512 -6.341,16.546 -14.267,16.546c-7.926,0 -14.862,-7.034 -14.862,-16.546c0,-9.511 6.837,-16.347 14.862,-16.347Zm-79.262,-0c7.926,-0 14.267,6.836 14.267,16.347c0,9.512 -6.341,16.546 -14.267,16.546c-7.926,0 -14.861,-7.034 -14.861,-16.546c-0,-9.511 6.836,-16.347 14.861,-16.347Zm-292.377,-0.991l-10.601,-0l-0,16.546l10.601,-0c4.954,-0 7.827,-3.072 7.827,-8.422c0,-5.152 -2.873,-8.124 -7.827,-8.124Zm60.239,-41.514c-5.35,0 -9.016,3.765 -9.016,9.115c0,5.252 3.666,9.017 9.016,9.017c5.35,-0 9.016,-3.765 9.016,-9.017c0,-5.35 -3.666,-9.115 -9.016,-9.115Zm20.707,0c-5.35,0 -9.016,3.765 -9.016,9.115c0,5.252 3.666,9.017 9.016,9.017c5.35,-0 9.016,-3.765 9.016,-9.017c0,-5.35 -3.666,-9.115 -9.016,-9.115Z" fill="#fff"/></svg>