<svg viewBox="0 0 630 221" xmlns="http://www.w3.org/2000/svg" fill-rule="evenodd" clip-rule="evenodd" stroke-linejoin="round" stroke-miterlimit="1.414"><path fill="none" d="M0 0.857H630V220.857H0z"/><path d="M624.953,113.479c-0.447,4.205 -4.004,7.48 -8.327,7.48l-330.019,0l0,88.824c0,1.825 -0.725,3.575 -2.015,4.866c-1.291,1.29 -3.041,2.015 -4.866,2.015c-39.161,0 -228.576,0 -267.737,0c-1.825,0 -3.575,-0.725 -4.866,-2.015c-1.29,-1.291 -2.015,-3.041 -2.015,-4.866l0,-103.785l0,-84.375l-0.108,0c0,0 0,-4.14 0,-8.064c0,-1.829 0.727,-3.583 2.02,-4.877c1.293,-1.293 3.047,-2.02 4.876,-2.02l169.63,0c-1.121,2.17 -1.734,4.72 -1.734,7.535c0,2.765 0.614,5.28 1.735,7.426l-161.458,0l0,84.375l589.97,0l0,-84.375l-381.419,0c1.122,-2.146 1.735,-4.661 1.735,-7.426c0,-2.815 -0.613,-5.365 -1.734,-7.535l388.005,0c4.625,0 8.374,3.75 8.374,8.374l0,98.443l-0.047,0Zm-395.705,12.615c6.671,0 12.5,1.288 17.487,3.864c4.987,2.576 8.867,6.407 11.641,11.493c2.774,5.086 4.162,11.328 4.162,18.726c0,7.926 -1.602,14.796 -4.806,20.608c-3.203,5.813 -7.695,10.238 -13.474,13.276c-5.78,3.039 -12.5,4.558 -20.162,4.558c-4.162,0 -8.125,-0.479 -11.89,-1.437c-3.765,-0.957 -6.968,-2.295 -9.61,-4.012l8.421,-16.348c3.435,2.444 7.629,3.666 12.583,3.666c4.029,0 7.348,-1.007 9.957,-3.022c2.609,-2.015 4.31,-4.937 5.103,-8.768c-3.633,2.576 -8.224,3.864 -13.772,3.864c-4.227,0 -8.157,-0.925 -11.79,-2.775c-3.633,-1.849 -6.539,-4.458 -8.719,-7.827c-2.18,-3.368 -3.269,-7.232 -3.269,-11.592c0,-4.821 1.238,-9.082 3.715,-12.781c2.477,-3.699 5.862,-6.539 10.155,-8.52c4.294,-1.982 9.049,-2.973 14.268,-2.973Zm-104.032,72.525c-6.142,0 -11.575,-1.437 -16.298,-4.31c-4.722,-2.873 -8.421,-7.034 -11.096,-12.484c-2.676,-5.449 -4.013,-11.938 -4.013,-19.468c0,-7.53 1.337,-14.02 4.013,-19.469c2.675,-5.449 6.374,-9.61 11.096,-12.484c4.723,-2.873 10.156,-4.31 16.298,-4.31c6.143,0 11.576,1.437 16.299,4.31c4.722,2.874 8.421,7.035 11.096,12.484c2.675,5.449 4.013,11.939 4.013,19.469c0,7.53 -1.338,14.019 -4.013,19.468c-2.675,5.45 -6.374,9.611 -11.096,12.484c-4.723,2.873 -10.156,4.31 -16.299,4.31Zm-59.545,-19.716l9.908,-9.016c4.689,-4.228 7.843,-8.009 9.462,-11.345c1.618,-3.335 2.427,-6.919 2.427,-10.75c0,-4.293 -1.189,-8.091 -3.567,-11.394c-2.378,-3.302 -5.68,-5.845 -9.908,-7.629c-4.227,-1.783 -9.082,-2.675 -14.564,-2.675c-7.199,0 -13.342,1.437 -18.428,4.31c-5.086,2.874 -8.95,6.787 -11.592,11.741l17.635,8.818c0.991,-2.048 2.411,-3.633 4.261,-4.756c1.849,-1.123 3.831,-1.684 5.944,-1.684c2.18,0 3.848,0.479 5.004,1.436c1.156,0.958 1.734,2.296 1.734,4.013c0,1.387 -0.364,2.807 -1.09,4.26c-0.727,1.453 -2.18,3.204 -4.36,5.251l-25.066,23.185l0,14.366l55.582,0l0,-18.131l-23.382,0Zm128.602,-51.223l-35.271,0l0,17.635l11.889,0l0,51.719l23.382,0l0,-69.354Zm-69.057,52.213c5.285,0 7.927,-5.845 7.927,-17.536c0,-11.691 -2.642,-17.537 -7.927,-17.537c-5.284,0 -7.926,5.846 -7.926,17.537c0,11.691 2.642,17.536 7.926,17.536Zm105.617,-23.481c2.113,0 3.831,-0.644 5.152,-1.932c1.321,-1.288 1.981,-3.022 1.981,-5.202c0,-2.179 -0.66,-3.897 -1.981,-5.152c-1.321,-1.255 -3.039,-1.882 -5.152,-1.882c-2.114,0 -3.831,0.627 -5.152,1.882c-1.321,1.255 -1.982,2.973 -1.982,5.152c0,2.18 0.661,3.914 1.982,5.202c1.321,1.288 3.038,1.932 5.152,1.932Zm128.058,-127.98c-21.797,0 -37.649,14.862 -37.649,35.271c0,20.708 15.456,35.866 36.757,35.866c10.701,0 22.491,-5.449 30.219,-13.87l-13.276,-14.168c-4.558,4.854 -10.8,7.926 -15.754,7.926c-8.322,0 -14.366,-6.738 -14.366,-16.051c0,-9.214 6.044,-15.852 14.366,-15.852c5.351,0 11.592,3.666 15.754,9.313l13.276,-15.753c-7.134,-7.728 -18.726,-12.682 -29.327,-12.682Zm-164.171,0.693l0,40.028c0,6.836 4.954,11.294 10.7,11.294c5.648,0 10.007,-4.359 10.007,-11.294l0,-40.028l22.986,0l0,40.028c0,18.428 -12.979,30.416 -33.092,30.416c-20.211,0 -33.587,-11.988 -33.587,-30.416l0,-40.028l22.986,0Zm-102.347,32.894l0,28.633c-7.728,5.152 -20.509,8.917 -30.416,8.917c-21.797,0 -37.65,-15.059 -37.65,-35.667c0,-20.509 16.447,-35.47 39.136,-35.47c10.799,0 22.589,4.161 30.02,10.7l-12.979,15.754c-4.657,-4.459 -11.394,-7.332 -17.14,-7.332c-8.917,0 -15.456,6.935 -15.456,16.348c0,9.61 6.638,16.545 15.654,16.545c2.378,0 5.746,-0.891 9.115,-2.278l0,-16.15l19.716,0Zm413.45,-33.587c-22.095,0 -38.145,14.762 -38.145,35.371c0,20.707 16.05,35.766 38.145,35.766c22.094,0 38.144,-15.158 38.144,-35.766c0,-20.509 -16.05,-35.371 -38.144,-35.371Zm-79.262,0c-22.094,0 -38.145,14.762 -38.145,35.371c0,20.707 16.051,35.766 38.145,35.766c22.094,0 38.145,-15.158 38.145,-35.766c0,-20.509 -16.051,-35.371 -38.145,-35.371Zm146.832,51.025l28.931,0l0,19.122l-51.917,0l0,-69.454l22.986,0l0,50.332Zm-449.513,19.122l-22.986,0l0,-69.454l33.587,0c18.825,0.001 29.624,9.017 29.624,24.869c0,10.106 -3.864,17.636 -10.997,21.995l13.672,22.59l-25.958,0l-8.322,-18.032l-8.62,0l0,18.032Zm144.355,0l-20.905,0l0,-69.454l19.221,0l27.445,35.668l0,-35.668l20.806,0l0,69.454l-19.221,0l-27.346,-35.47l0,35.47Zm237.885,-51.025c7.926,0 14.267,6.836 14.267,16.348c0,9.511 -6.341,16.545 -14.267,16.545c-7.926,0 -14.862,-7.034 -14.862,-16.545c0,-9.512 6.837,-16.348 14.862,-16.348Zm-79.262,0c7.926,0 14.267,6.836 14.267,16.348c0,9.511 -6.341,16.545 -14.267,16.545c-7.926,0 -14.861,-7.034 -14.861,-16.545c0,-9.512 6.836,-16.348 14.861,-16.348Zm-292.377,-0.991l-10.601,0l0,16.546l10.601,0c4.954,0 7.827,-3.071 7.827,-8.422c0,-5.151 -2.873,-8.124 -7.827,-8.124Zm60.239,-41.513c-5.35,0 -9.016,3.765 -9.016,9.115c0,5.251 3.666,9.016 9.016,9.016c5.35,0 9.016,-3.765 9.016,-9.016c0,-5.35 -3.666,-9.115 -9.016,-9.115Zm20.707,0c-5.35,0 -9.016,3.765 -9.016,9.115c0,5.251 3.666,9.016 9.016,9.016c5.35,0 9.016,-3.765 9.016,-9.016c0,-5.35 -3.666,-9.115 -9.016,-9.115Z"/></svg>