<svg viewBox="0 0 1000 321" xmlns="http://www.w3.org/2000/svg" fill-rule="evenodd" clip-rule="evenodd" stroke-linejoin="round" stroke-miterlimit="1.414"><path fill="none" d="M0 0H1000V321H0z"/><path d="M125.835,78.751l0,52.264c-5.563,2.538 -11.785,4.49 -18.666,5.856c-6.881,1.367 -13.932,2.05 -21.154,2.05c-11.322,0 -21.155,-2.147 -29.5,-6.442c-8.344,-4.294 -14.761,-10.467 -19.251,-18.519c-4.489,-8.052 -6.734,-17.592 -6.734,-28.621c0,-10.736 2.245,-20.13 6.734,-28.181c4.49,-8.052 10.834,-14.25 19.032,-18.593c8.198,-4.343 17.763,-6.515 28.694,-6.515c7.515,0 14.615,0.976 21.301,2.928c6.685,1.952 12.126,4.636 16.323,8.052l-8.637,19.471c-4.783,-3.123 -9.394,-5.392 -13.835,-6.807c-4.441,-1.416 -9.199,-2.123 -14.274,-2.123c-9.272,0 -16.177,2.611 -20.715,7.832c-4.538,5.222 -6.808,13.2 -6.808,23.936c0,11.126 2.367,19.374 7.101,24.741c4.733,5.368 12.029,8.052 21.886,8.052c4.587,0 9.175,-0.488 13.762,-1.464l0,-19.324l-18.154,0l0,-18.593l42.895,0Zm483.26,60.17c-10.834,0 -20.277,-2.221 -28.328,-6.661c-8.052,-4.441 -14.25,-10.712 -18.593,-18.812c-4.343,-8.101 -6.515,-17.471 -6.515,-28.109c0,-10.54 2.172,-19.837 6.515,-27.889c4.343,-8.052 10.541,-14.298 18.593,-18.739c8.051,-4.44 17.494,-6.661 28.328,-6.661c6.831,0 13.444,1.025 19.836,3.075c6.393,2.049 11.542,4.831 15.445,8.344l-8.344,19.471c-8.491,-6.148 -17.275,-9.223 -26.352,-9.223c-8.393,0 -14.835,2.66 -19.324,7.979c-4.49,5.319 -6.735,13.2 -6.735,23.643c0,10.541 2.245,18.495 6.735,23.863c4.489,5.368 10.931,8.052 19.324,8.052c9.077,0 17.861,-3.074 26.352,-9.223l8.344,19.471c-3.903,3.513 -9.052,6.295 -15.445,8.344c-6.392,2.05 -13.005,3.075 -19.836,3.075Zm-315.488,0c-15.225,0 -26.742,-3.831 -34.55,-11.492c-7.808,-7.662 -11.712,-18.91 -11.712,-33.745l0,-60.316l26.791,0l0,61.341c0,7.515 1.684,13.273 5.051,17.275c3.367,4.001 8.174,6.002 14.42,6.002c6.149,0 10.882,-2.025 14.201,-6.076c3.318,-4.05 4.977,-9.784 4.977,-17.201l0,-61.341l27.084,0l0,60.316c0,14.64 -3.977,25.839 -11.932,33.598c-7.954,7.759 -19.397,11.639 -34.33,11.639Zm412.403,0c-10.638,0 -19.91,-2.172 -27.816,-6.515c-7.905,-4.343 -13.981,-10.565 -18.226,-18.666c-4.246,-8.1 -6.368,-17.567 -6.368,-28.401c0,-10.833 2.147,-20.252 6.441,-28.255c4.294,-8.003 10.37,-14.176 18.227,-18.519c7.856,-4.343 17.104,-6.515 27.742,-6.515c10.638,0 19.886,2.172 27.742,6.515c7.857,4.343 13.884,10.516 18.081,18.519c4.196,8.003 6.295,17.422 6.295,28.255c0,10.834 -2.099,20.301 -6.295,28.401c-4.197,8.101 -10.224,14.323 -18.081,18.666c-7.856,4.343 -17.104,6.515 -27.742,6.515Zm117.85,0c-10.638,0 -19.91,-2.172 -27.815,-6.515c-7.906,-4.343 -13.981,-10.565 -18.227,-18.666c-4.245,-8.1 -6.368,-17.567 -6.368,-28.401c0,-10.833 2.147,-20.252 6.441,-28.255c4.295,-8.003 10.37,-14.176 18.227,-18.519c7.857,-4.343 17.104,-6.515 27.742,-6.515c10.639,0 19.886,2.172 27.743,6.515c7.856,4.343 13.883,10.516 18.08,18.519c4.197,8.003 6.295,17.422 6.295,28.255c0,10.834 -2.098,20.301 -6.295,28.401c-4.197,8.101 -10.224,14.323 -18.08,18.666c-7.857,4.343 -17.104,6.515 -27.743,6.515Zm95.745,-23.57l44.065,0l0,22.252l-71.588,0l0,-104.235l27.523,0l0,81.983Zm-487.359,-60.902l-47.579,0l0,19.618l44.504,0l0,21.081l-44.504,0l0,21.374l47.579,0l0,21.081l-74.37,0l0,-104.235l74.37,0l0,21.081Zm-261.906,83.154l-27.084,0l0,-104.235l48.458,0c12.59,0 22.057,2.708 28.401,8.125c6.344,5.417 9.516,13.151 9.516,23.204c0,7.027 -1.879,13.103 -5.636,18.227c-3.758,5.124 -9.053,8.759 -15.884,10.906c2.928,0.586 5.563,1.952 7.905,4.099c2.342,2.148 4.197,5.027 5.563,8.638l12.298,31.036l-29.134,0l-13.468,-34.696c-1.562,-3.904 -5.221,-5.856 -10.98,-5.856l-9.955,0l0,40.552Zm301.58,0l-25.62,0l0,-104.235l20.057,0l47.286,58.852l0,-58.852l25.913,0l0,104.235l-20.35,0l-47.286,-59.145l0,59.145Zm234.09,-19.617c7.808,0 13.932,-2.782 18.373,-8.345c4.441,-5.563 6.661,-13.664 6.661,-24.302c0,-10.54 -2.22,-18.568 -6.661,-24.082c-4.441,-5.515 -10.565,-8.272 -18.373,-8.272c-7.808,0 -13.908,2.733 -18.3,8.199c-4.392,5.465 -6.588,13.517 -6.588,24.155c0,10.736 2.196,18.861 6.588,24.375c4.392,5.515 10.492,8.272 18.3,8.272Zm117.85,0c7.808,0 13.933,-2.782 18.373,-8.345c4.441,-5.563 6.661,-13.664 6.661,-24.302c0,-10.54 -2.22,-18.568 -6.661,-24.082c-4.44,-5.515 -10.565,-8.272 -18.373,-8.272c-7.808,0 -13.907,2.733 -18.299,8.199c-4.392,5.465 -6.588,13.517 -6.588,24.155c0,10.736 2.196,18.861 6.588,24.375c4.392,5.515 10.491,8.272 18.299,8.272Zm-636.538,-63.83l-17.275,0l0,22.399l17.275,0c5.856,0 10.102,-0.902 12.737,-2.708c2.635,-1.806 3.952,-4.612 3.952,-8.418c0,-4.001 -1.293,-6.881 -3.879,-8.637c-2.586,-1.757 -6.856,-2.636 -12.81,-2.636Z" fill-rule="nonzero"/><path d="M401.997,159.778l0,160.843l-394.84,0l0,-160.843l394.84,0Zm-243.999,131.417c-12.883,0 -22.764,-4.587 -29.645,-13.762c-6.881,-9.174 -10.321,-22.447 -10.321,-39.82c0,-17.08 3.44,-30.182 10.321,-39.308c6.881,-9.125 16.762,-13.688 29.645,-13.688c12.883,0 22.765,4.563 29.646,13.688c6.881,9.126 10.321,22.228 10.321,39.308c0,17.373 -3.44,30.646 -10.321,39.82c-6.881,9.175 -16.763,13.762 -29.646,13.762Zm172.018,-106.871c13.957,0 24.717,4.539 32.281,13.615c7.564,9.077 11.346,22.009 11.346,38.796c0,11.223 -1.806,20.935 -5.417,29.133c-3.611,8.198 -8.833,14.469 -15.665,18.812c-6.832,4.343 -14.932,6.515 -24.302,6.515c-6.636,0 -13.029,-0.976 -19.178,-2.928c-6.149,-1.952 -11.37,-4.685 -15.664,-8.199l8.637,-19.47c8.686,6.246 16.982,9.369 24.888,9.369c11.712,0 18.153,-8.637 19.324,-25.912c-2.245,3.22 -5.27,5.733 -9.076,7.539c-3.807,1.806 -8.004,2.708 -12.591,2.708c-5.953,0 -11.297,-1.464 -16.03,-4.392c-4.734,-2.927 -8.443,-6.953 -11.126,-12.077c-2.684,-5.124 -4.026,-10.956 -4.026,-17.495c0,-6.929 1.561,-13.127 4.684,-18.592c3.123,-5.466 7.467,-9.736 13.03,-12.81c5.563,-3.075 11.858,-4.612 18.885,-4.612Zm-261.906,83.74l20.789,-21.228c5.758,-6.149 9.833,-11.687 12.224,-16.616c2.391,-4.929 3.587,-10.419 3.587,-16.47c0,-5.953 -1.538,-11.15 -4.612,-15.591c-3.074,-4.441 -7.417,-7.857 -13.029,-10.248c-5.612,-2.391 -12.176,-3.587 -19.691,-3.587c-6.929,0 -13.737,1.001 -20.422,3.001c-6.686,2.001 -12.127,4.709 -16.324,8.125l8.638,19.471c4.587,-3.025 9.15,-5.343 13.688,-6.954c4.538,-1.61 8.857,-2.415 12.956,-2.415c8.003,0 12.005,3.367 12.005,10.101c0,5.759 -3.172,11.956 -9.516,18.593l-33.964,35.428l0,20.203l73.491,0l0,-21.813l-39.82,0Zm197.052,0l0,-82.422l-16.104,0l-32.208,18.3l0,23.57l20.935,-12.005l0,52.557l-22.399,0l0,21.813l72.321,0l0,-21.813l-22.545,0Zm-107.164,2.489c4.685,0 8.052,-2.562 10.102,-7.686c2.049,-5.124 3.074,-13.542 3.074,-25.254c0,-11.419 -1.025,-19.666 -3.074,-24.741c-2.05,-5.075 -5.417,-7.613 -10.102,-7.613c-4.684,0 -8.051,2.538 -10.101,7.613c-2.05,5.075 -3.074,13.322 -3.074,24.741c0,11.712 1.024,20.13 3.074,25.254c2.05,5.124 5.417,7.686 10.101,7.686Zm173.628,-37.478c3.709,0 6.71,-1.269 9.004,-3.807c2.293,-2.537 3.44,-5.904 3.44,-10.101c0,-4.002 -1.171,-7.296 -3.513,-9.882c-2.343,-2.586 -5.319,-3.88 -8.931,-3.88c-3.806,0 -6.831,1.269 -9.076,3.807c-2.245,2.537 -3.367,5.856 -3.367,9.955c0,4.294 1.098,7.686 3.294,10.175c2.196,2.488 5.245,3.733 9.149,3.733Z"/><path d="M7.157 156.089H992.7710000000001V170.851H7.157zM0 .379H992.772V15.007H0z"/><path d="M0 7.504H14.528V320.62H0zM985.401.379H1000V170.851H985.401z"/></svg>