<?xml version="1.0" encoding="UTF-8" standalone="no"?><!DOCTYPE svg PUBLIC "-//W3C//DTD SVG 1.1//EN" "http://www.w3.org/Graphics/SVG/1.1/DTD/svg11.dtd"><svg width="100%" height="100%" viewBox="0 0 120 120" version="1.1" xmlns="http://www.w3.org/2000/svg" xmlns:xlink="http://www.w3.org/1999/xlink" xml:space="preserve" xmlns:serif="http://www.serif.com/" style="fill-rule:evenodd;clip-rule:evenodd;stroke-linejoin:round;stroke-miterlimit:1.41421;"><rect id="Artboard1" x="0" y="0" width="120" height="120" style="fill:none;"/><path d="M63.718,70.771c-7.298,15.197 -23.259,16.485 -31.58,9.853c-8.322,-6.632 -10.144,-21.432 0.364,-34.858c10.255,-13.103 25.729,-34.034 18.313,-39.224c15.361,2.906 40.125,23.932 46.224,34.396c8.663,13.908 5.422,24.026 -2.216,31.947c-7.639,7.92 -22.442,11.794 -31.105,-2.114Z" style="fill:#21d23f;"/><path d="M63.744,45.486c2.457,11.176 3.32,27.869 -0.042,42.962c-1.529,6.861 -3.572,12.327 4,22.759c0.518,0.739 0.533,1.719 0.039,2.473c-0.494,0.755 -1.399,1.132 -2.283,0.953c-0.507,-0.092 -0.932,-0.179 -1.215,-0.236c-0.254,-0.051 -0.496,-0.153 -0.711,-0.298c-9.849,-6.714 -8.067,-18.95 -5.496,-26.541c5.051,-14.906 6.465,-31.594 5.708,-42.072Z" style="fill:#15aa2e;"/><path d="M115.077,95.577c0,-1.13 -0.689,-2.147 -1.739,-2.565c-19.04,-7.49 -42.638,0.869 -65.968,3.227c-13.748,1.389 -26.242,-5.452 -40.674,-2.855c-1.025,0.192 -1.768,1.087 -1.768,2.13c-0.005,2.802 -0.005,8.427 -0.005,13.054c0,1.957 0.797,3.83 2.207,5.187c1.41,1.358 3.312,2.082 5.268,2.008c18.063,-0.091 63.635,0.06 95.477,0.09c1.91,0.001 3.742,-0.757 5.092,-2.108c1.351,-1.35 2.11,-3.182 2.11,-5.092c0,-4.608 0,-10.236 0,-13.076Z" style="fill:#926e46;"/></svg>