<svg xmlns="http://www.w3.org/2000/svg" viewBox="0 0 50 50" fill="#1c252b"><path d="M 25 0 C 21.183594 0 16.605469 0.886719 16.03125 1 C 16.011719 1.003906 15.914063 1 15.90625 1 C 15.84375 1.003906 15.78125 1.015625 15.71875 1.03125 C 15.6875 1.039063 15.65625 1.050781 15.625 1.0625 C 15.242188 1.148438 14.945313 1.449219 14.863281 1.832031 C 14.785156 2.214844 14.933594 2.609375 15.25 2.84375 C 15.46875 3.378906 16.183594 5.148438 16.4375 6.84375 C 14.800781 7.394531 12.28125 8.203125 12.03125 8.28125 C 12 8.289063 11.96875 8.300781 11.9375 8.3125 C 11.933594 8.3125 11.8125 8.34375 11.8125 8.34375 C 11.648438 8.386719 11.496094 8.472656 11.375 8.59375 C 10.617188 8.996094 6.601563 11.277344 4.9375 16.375 L 4.96875 16.375 C 4.578125 17.496094 3.316406 20.859375 2.1875 24.1875 C 1.621094 25.851563 1.089844 27.523438 0.6875 28.90625 C 0.285156 30.289063 0 31.253906 0 32.09375 L 0 48 C 0 48.550781 0.449219 49 1 49 L 8 49 C 8.550781 49 9 48.550781 9 48 L 9 33 C 9 33.128906 9.027344 32.882813 9.125 32.59375 C 9.222656 32.304688 9.378906 31.90625 9.5625 31.46875 C 9.925781 30.597656 10.410156 29.511719 10.90625 28.46875 C 10.953125 28.371094 10.953125 28.378906 11 28.28125 L 11 43.90625 C 11 44.457031 11.449219 44.90625 12 44.90625 L 38 44.90625 C 38.550781 44.90625 39 44.457031 39 43.90625 L 39 28.28125 C 39.046875 28.378906 39.046875 28.371094 39.09375 28.46875 C 39.589844 29.511719 40.074219 30.597656 40.4375 31.46875 C 40.621094 31.90625 40.777344 32.304688 40.875 32.59375 C 40.972656 32.882813 41 33.128906 41 33 L 41 48 C 41 48.550781 41.449219 49 42 49 L 49 49 C 49.550781 49 50 48.550781 50 48 L 50 32.09375 C 50 31.253906 49.714844 30.289063 49.3125 28.90625 C 48.910156 27.523438 48.378906 25.851563 47.8125 24.1875 C 46.683594 20.859375 45.421875 17.496094 45.03125 16.375 L 45.0625 16.375 C 43.226563 10.757813 38.34375 8.40625 38.34375 8.40625 C 38.191406 8.320313 38.019531 8.277344 37.84375 8.28125 C 37.800781 8.277344 37.761719 8.277344 37.71875 8.28125 C 37.050781 8.050781 34.980469 7.363281 33.46875 6.90625 C 33.582031 5.003906 34 2.15625 34 2.15625 C 34 2.144531 34 2.136719 34 2.125 C 34 2.105469 34 2.082031 34 2.0625 C 34 2.050781 34 2.042969 34 2.03125 C 34 2.011719 34 1.988281 34 1.96875 C 34 1.957031 34 1.949219 34 1.9375 C 34 1.90625 34 1.875 34 1.84375 C 34 1.832031 34 1.824219 34 1.8125 C 33.992188 1.792969 33.980469 1.769531 33.96875 1.75 C 33.96875 1.738281 33.96875 1.730469 33.96875 1.71875 C 33.960938 1.699219 33.949219 1.675781 33.9375 1.65625 C 33.9375 1.644531 33.9375 1.636719 33.9375 1.625 C 33.929688 1.605469 33.917969 1.582031 33.90625 1.5625 C 33.894531 1.550781 33.886719 1.542969 33.875 1.53125 C 33.867188 1.511719 33.855469 1.488281 33.84375 1.46875 C 33.835938 1.449219 33.824219 1.425781 33.8125 1.40625 C 33.800781 1.394531 33.792969 1.386719 33.78125 1.375 C 33.773438 1.355469 33.761719 1.332031 33.75 1.3125 C 33.738281 1.3125 33.730469 1.3125 33.71875 1.3125 C 33.699219 1.289063 33.679688 1.269531 33.65625 1.25 C 33.644531 1.238281 33.636719 1.230469 33.625 1.21875 C 33.613281 1.207031 33.605469 1.199219 33.59375 1.1875 C 33.582031 1.175781 33.574219 1.167969 33.5625 1.15625 C 33.542969 1.144531 33.519531 1.132813 33.5 1.125 C 33.488281 1.125 33.480469 1.125 33.46875 1.125 C 33.449219 1.113281 33.425781 1.101563 33.40625 1.09375 C 33.394531 1.082031 33.386719 1.074219 33.375 1.0625 C 33.355469 1.0625 33.332031 1.0625 33.3125 1.0625 C 33.292969 1.050781 33.269531 1.039063 33.25 1.03125 C 33.25 1.03125 33.21875 1.03125 33.21875 1.03125 C 33.1875 1.019531 33.15625 1.007813 33.125 1 C 33.113281 0.996094 33.050781 1.003906 33.03125 1 C 32.472656 0.867188 28.765625 0 25 0 Z M 25 2 C 26.976563 2 29 2.273438 30.5 2.53125 L 28.125 4.1875 C 28.09375 4.207031 28.0625 4.226563 28.03125 4.25 C 28.03125 4.25 27.785156 4.476563 27.53125 4.84375 C 27.277344 5.210938 26.941406 5.785156 26.5625 6.625 C 26.082031 7.695313 25.5625 9.449219 25 11.59375 C 24.425781 9.425781 23.847656 7.65625 23.375 6.59375 C 23.003906 5.761719 22.683594 5.203125 22.4375 4.84375 C 22.191406 4.484375 21.96875 4.25 21.96875 4.25 C 21.910156 4.203125 21.847656 4.160156 21.78125 4.125 L 18.96875 2.53125 C 20.742188 2.277344 23.039063 2 25 2 Z M 31.78125 4.0625 C 31.601563 5.300781 31.40625 6.242188 31.40625 7.59375 C 31.40625 8.050781 31.714844 8.449219 32.15625 8.5625 C 33 8.773438 35.828125 9.765625 36.78125 10.09375 C 36.46875 11.40625 35.050781 17.941406 36.9375 23.8125 C 36.929688 23.949219 36.953125 24.089844 37 24.21875 L 37 42.90625 L 13 42.90625 L 13 24.1875 C 13.035156 24.097656 13.054688 24.003906 13.0625 23.90625 C 14.429688 21.253906 14.410156 17.761719 14.09375 14.78125 C 13.8125 12.132813 13.382813 10.625 13.21875 9.96875 C 14.117188 9.683594 16.6875 8.882813 17.9375 8.4375 C 18.34375 8.289063 18.605469 7.898438 18.59375 7.46875 C 18.546875 6.339844 18.203125 5.226563 17.875 4.21875 L 20.625 5.75 L 20.65625 5.78125 C 20.660156 5.78125 20.671875 5.761719 20.8125 5.96875 C 20.980469 6.214844 21.234375 6.664063 21.5625 7.40625 C 22.222656 8.890625 23.140625 11.546875 24.03125 16.09375 C 24.144531 16.535156 24.542969 16.84375 25 16.84375 C 25.457031 16.84375 25.855469 16.535156 25.96875 16.09375 C 26.808594 11.601563 27.738281 8.929688 28.40625 7.4375 C 28.742188 6.691406 29.011719 6.253906 29.1875 6 C 29.363281 5.746094 29.375 5.75 29.375 5.75 Z M 11.4375 10.90625 C 11.652344 11.894531 11.910156 13.238281 12.09375 14.96875 C 12.410156 17.957031 12.316406 21.472656 11.15625 23.375 C 11.074219 23.496094 11.023438 23.636719 11 23.78125 C 10.824219 24.121094 10 25.71875 9.09375 27.625 C 8.589844 28.683594 8.074219 29.761719 7.6875 30.6875 C 7.496094 31.152344 7.339844 31.570313 7.21875 31.9375 C 7.097656 32.304688 7 32.570313 7 33 L 7 47 L 2 47 L 2 32.09375 C 2 31.933594 2.234375 30.800781 2.625 29.46875 C 3.015625 28.136719 3.535156 26.492188 4.09375 24.84375 C 5.214844 21.546875 6.433594 18.210938 6.84375 17.03125 C 6.84375 17.019531 6.84375 17.011719 6.84375 17 C 7.898438 13.78125 10.105469 11.851563 11.4375 10.90625 Z M 38.625 10.9375 C 39.964844 11.898438 42.117188 13.828125 43.15625 17 C 43.15625 17.011719 43.15625 17.019531 43.15625 17.03125 C 43.566406 18.210938 44.785156 21.546875 45.90625 24.84375 C 46.464844 26.492188 46.984375 28.136719 47.375 29.46875 C 47.765625 30.800781 48 31.933594 48 32.09375 L 48 47 L 43 47 L 43 33 C 43 32.570313 42.902344 32.304688 42.78125 31.9375 C 42.660156 31.570313 42.503906 31.152344 42.3125 30.6875 C 41.925781 29.761719 41.410156 28.683594 40.90625 27.625 C 39.949219 25.613281 39.03125 23.839844 38.9375 23.65625 C 37.378906 19.335938 38.171875 13.472656 38.625 10.9375 Z M 26.8125 20.3125 C 26.625 20.304688 26.460938 20.351563 26.3125 20.5 C 25.511719 21.398438 22.210938 25.585938 25.8125 34.1875 C 23.011719 31.488281 22.710938 26.804688 22.8125 24.90625 C 22.613281 24.90625 21.613281 24.492188 20.3125 25.59375 C 17.3125 28.09375 17.988281 35.59375 28.6875 39.09375 C 27.988281 36.992188 32.292969 32.492188 31.09375 27.59375 C 30.195313 23.59375 26.394531 24.386719 25.59375 25.1875 C 25.695313 23.386719 26.695313 22.210938 27.59375 21.3125 C 27.96875 20.9375 27.378906 20.335938 26.8125 20.3125 Z"/></svg>