<svg xmlns="http://www.w3.org/2000/svg" viewBox="0 0 50 50" fill="#1c252b"><path style="line-height:normal;text-indent:0;text-align:start;text-decoration-line:none;text-decoration-style:solid;text-decoration-color:#000;text-transform:none;block-progression:tb;isolation:auto;mix-blend-mode:normal" d="M 13 3.0058594 A 1.0001 1.0001 0 0 0 12.292969 3.2988281 L 11.292969 4.2988281 A 1.0001 1.0001 0 0 0 11 5.0058594 L 11 6.0058594 L 8 6.0058594 C 6.3550302 6.0058594 5 7.3608895 5 9.0058594 L 5 12 C 5 13.64497 6.3550302 15 8 15 L 11 15 L 11 28 L 7 28 L 7 25 A 1 1 0 0 0 6 24 A 1 1 0 0 0 5 25 L 5 44 L 7 44 L 43 44 L 45 44 L 45 25 A 1 1 0 0 0 44 24 A 1 1 0 0 0 43 25 L 43 28 L 39.914062 28 L 39.050781 18.521484 C 39.499351 18.31805 40.087852 18.110968 41.125 17.28125 C 42.501971 16.179674 44 14.416667 44 12 C 44 10.166667 43.133515 8.5081575 42.164062 7.2617188 C 41.679336 6.6384993 41.16299 6.1176558 40.660156 5.7265625 C 40.157322 5.3354692 39.75 5 39 5 A 1.0001 1.0001 0 0 0 38 6 L 38 11.5 C 37.719997 11.70711 37.246364 12 36.5 12 C 35.753636 12 35.280003 11.70711 35 11.5 L 35 6 A 1.0001 1.0001 0 0 0 34 5 C 33.25 5 32.842678 5.3354692 32.339844 5.7265625 C 31.83701 6.1176558 31.320663 6.6384993 30.835938 7.2617188 C 29.866485 8.5081574 29 10.166667 29 12 C 29 14.416667 30.498029 16.179674 31.875 17.28125 C 32.912148 18.110968 33.500649 18.31805 33.949219 18.521484 L 33.085938 28 L 19 28 L 19 15 L 24 15 C 25.093063 15 26 14.093063 26 13 L 26 10.5 C 26 9.8781747 25.709316 9.2904711 25.214844 8.9121094 L 21.962891 6.4199219 L 21.960938 6.4179688 C 21.610522 6.1487873 21.181479 6.0058594 20.744141 6.0058594 L 19 6.0058594 L 19 5.0058594 A 1.0001 1.0001 0 0 0 18.707031 4.2988281 L 17.707031 3.2988281 A 1.0001 1.0001 0 0 0 17 3.0058594 L 13 3.0058594 z M 13.414062 5.0058594 L 16.585938 5.0058594 L 17 5.4199219 L 17 6.0058594 L 13 6.0058594 L 13 5.4199219 L 13.414062 5.0058594 z M 33 7.8867188 L 33 12 A 1.0001 1.0001 0 0 0 33.292969 12.707031 C 33.292969 12.707031 34.555556 14 36.5 14 C 38.444444 14 39.707031 12.707031 39.707031 12.707031 A 1.0001 1.0001 0 0 0 40 12 L 40 7.8867188 C 40.199856 8.0891803 40.387538 8.2331964 40.585938 8.4882812 C 41.366484 9.4918426 42 10.833333 42 12 C 42 13.583333 40.998029 14.820326 39.875 15.71875 C 38.751971 16.617174 37.628906 17.072266 37.628906 17.072266 A 1.0001 1.0001 0 0 0 37.003906 18.089844 L 37.904297 28 L 35.095703 28 L 35.996094 18.089844 A 1.0001 1.0001 0 0 0 35.371094 17.072266 C 35.371094 17.072266 34.248029 16.617174 33.125 15.71875 C 32.001971 14.820326 31 13.583333 31 12 C 31 10.833333 31.633515 9.4918425 32.414062 8.4882812 C 32.612462 8.2331964 32.800144 8.0891803 33 7.8867188 z M 8 8.0058594 L 20.742188 8.0058594 L 20.744141 8.0058594 L 24 10.5 L 24 13 L 8 13 C 7.4349698 13 7 12.56503 7 12 L 7 9.0058594 C 7 8.4408292 7.4349698 8.0058594 8 8.0058594 z M 13 15 L 17 15 L 17 28 L 13 28 L 13 15 z M 7 30 L 34 30 L 39 30 L 43 30 L 43 35 L 7 35 L 7 30 z M 7 37 L 43 37 L 43 42 L 7 42 L 7 37 z"/></svg>